<svg width="480" height="480" viewBox="0 0 480 480" fill="none" xmlns="http://www.w3.org/2000/svg">
<path d="M285.966 273.369C322.128 247.983 330.863 198.088 305.476 161.927C280.089 125.766 230.195 117.03 194.034 142.417C157.873 167.804 149.137 217.698 174.524 253.859C179.848 261.443 186.45 268.045 194.034 273.369C151.317 280.712 120.074 317.719 120 361.063V472C119.999 476.417 123.579 479.999 127.996 480C127.997 480 127.999 480 128 480H352C356.417 480.001 359.999 476.421 360 472.004C360 472.003 360 472.001 360 472V361.062C359.925 317.719 328.683 280.712 285.966 273.369ZM176 208C176 172.654 204.654 144 240 144C275.346 144 304 172.654 304 208C304 243.346 275.346 272 240 272C204.671 271.96 176.04 243.329 176 208ZM344 464H136V361.062C136.045 320.73 168.73 288.045 209.063 288H270.938C311.27 288.045 343.955 320.73 344 361.062V464Z" fill="#CA6E1B"/>
<path d="M248 48H232V80H248V48Z" fill="#CA6E1B"/>
<path d="M333.657 67.7037L311.03 90.3309L322.344 101.645L344.971 79.0173L333.657 67.7037Z" fill="#CA6E1B"/>
<path d="M440 464H408V480H440V464Z" fill="#CA6E1B"/>
<path d="M440 384H408V400H440V384Z" fill="#CA6E1B"/>
<path d="M440 304H408V320H440V304Z" fill="#CA6E1B"/>
<path d="M428.666 219.333L398.311 229.457L403.373 244.635L433.729 234.51L428.666 219.333Z" fill="#CA6E1B"/>
<path d="M403.811 136.372L373.456 146.496L378.518 161.674L408.873 151.549L403.811 136.372Z" fill="#CA6E1B"/>
<path d="M146.351 67.722L135.035 79.034L157.659 101.664L168.975 90.3524L146.351 67.722Z" fill="#CA6E1B"/>
<path d="M72 464H40V480H72V464Z" fill="#CA6E1B"/>
<path d="M72 384H40V400H72V384Z" fill="#CA6E1B"/>
<path d="M72 304H40V320H72V304Z" fill="#CA6E1B"/>
<path d="M51.3479 219.338L46.2903 234.517L76.6487 244.633L81.7063 229.453L51.3479 219.338Z" fill="#CA6E1B"/>
<path d="M76.1668 136.429L71.106 151.608L101.464 161.73L106.525 146.55L76.1668 136.429Z" fill="#CA6E1B"/>
<path d="M472 32C458.751 31.986 448.014 21.249 448 8C448 3.582 444.418 0 440 0C435.582 0 432 3.582 432 8C431.986 21.249 421.249 31.986 408 32C403.582 32 400 35.582 400 40C400 44.418 403.582 48 408 48C421.249 48.014 431.986 58.751 432 72C432 76.418 435.582 80 440 80C444.418 80 448 76.418 448 72C448.014 58.751 458.751 48.014 472 48C476.418 48 480 44.418 480 40C480 35.582 476.418 32 472 32ZM440 48.023C437.717 44.984 435.016 42.283 431.977 40C435.016 37.717 437.717 35.016 440 31.977C442.283 35.016 444.984 37.717 448.023 40C444.984 42.283 442.283 44.984 440 48.023Z" fill="#CA6E1B"/>
<path d="M72 32C58.751 31.986 48.014 21.249 48 8C48 3.582 44.418 0 40 0C35.582 0 32 3.582 32 8C31.986 21.249 21.249 31.986 8 32C3.582 32 0 35.582 0 40C0 44.418 3.582 48 8 48C21.249 48.014 31.986 58.751 32 72C32 76.418 35.582 80 40 80C44.418 80 48 76.418 48 72C48.014 58.751 58.751 48.014 72 48C76.418 48 80 44.418 80 40C80 35.582 76.418 32 72 32ZM40 48.023C37.717 44.984 35.016 42.283 31.977 40C35.016 37.717 37.717 35.016 40 31.977C42.283 35.016 44.984 37.717 48.023 40C44.984 42.283 42.283 44.984 40 48.023Z" fill="#CA6E1B"/>
</svg>
