<svg width="512" height="512" viewBox="0 0 512 512" fill="none" xmlns="http://www.w3.org/2000/svg">
<g clip-path="url(#clip0)">
<path d="M325.374 415.349C403.003 415.349 466.159 352.193 466.159 274.564C466.159 196.935 403.003 133.779 325.374 133.779C247.745 133.779 184.588 196.934 184.588 274.564C184.588 352.194 247.745 415.349 325.374 415.349V415.349ZM220.551 267.021H199.905C201.629 238.032 213.221 211.659 231.363 191.218L245.92 205.775C247.392 207.249 249.323 207.985 251.252 207.985C253.182 207.985 255.113 207.249 256.585 205.775C259.531 202.83 259.531 198.054 256.585 195.11L242.028 180.553C262.469 162.411 288.842 150.819 317.831 149.095V169.741C317.831 173.906 321.207 177.283 325.373 177.283C329.539 177.283 332.915 173.906 332.915 169.741V149.095C361.904 150.819 388.277 162.411 408.717 180.553L394.16 195.11C391.215 198.055 391.215 202.831 394.16 205.775C395.633 207.248 397.564 207.985 399.494 207.985C401.423 207.985 403.354 207.249 404.827 205.775L419.383 191.218C437.524 211.659 449.117 238.031 450.84 267.02H430.195C426.028 267.02 422.653 270.397 422.653 274.562C422.653 278.727 426.028 282.104 430.195 282.104H450.84C449.116 311.094 437.524 337.466 419.382 357.906L404.826 343.35C401.88 340.405 397.105 340.405 394.16 343.35C391.215 346.296 391.215 351.071 394.16 354.016L408.717 368.573C388.276 386.715 361.904 398.306 332.915 400.031V379.385C332.915 375.22 329.539 371.843 325.373 371.843C321.207 371.843 317.831 375.22 317.831 379.385V400.031C288.841 398.306 262.469 386.715 242.028 368.573L256.585 354.017C259.531 351.071 259.531 346.296 256.585 343.351C253.639 340.405 248.864 340.406 245.92 343.351L231.363 357.907C213.221 337.466 201.629 311.095 199.905 282.104H220.551C224.716 282.104 228.093 278.727 228.093 274.562C228.093 270.398 224.716 267.021 220.551 267.021V267.021Z" fill="#CA6E1B"/>
<path d="M416.822 419.724C389.486 436.983 357.864 446.105 325.374 446.105C230.786 446.105 153.832 369.152 153.832 274.563C153.832 236.269 166.171 200.05 189.513 169.819C192.058 166.523 191.45 161.787 188.153 159.24C184.856 156.695 180.12 157.304 177.574 160.601C152.173 193.495 138.749 232.902 138.749 274.563C138.749 377.469 222.469 461.189 325.374 461.189C360.719 461.189 395.127 451.261 424.875 432.478C428.398 430.255 429.45 425.597 427.226 422.074C425.002 418.553 420.345 417.502 416.822 419.724Z" fill="#CA6E1B"/>
<path d="M370.859 93.5537V64.9646C370.859 57.1592 364.509 50.8098 356.705 50.8098H294.042C286.236 50.8098 279.887 57.1592 279.887 64.9646V93.5457C249.895 101.06 222.069 115.966 198.909 137.317C195.847 140.141 195.653 144.912 198.476 147.975C201.3 151.037 206.071 151.232 209.133 148.408C240.881 119.14 282.163 103.021 325.373 103.021C419.962 103.021 496.915 179.975 496.915 274.563C496.915 323.115 476.203 369.603 440.089 402.106C436.994 404.893 436.742 409.661 439.529 412.758C441.017 414.413 443.072 415.253 445.136 415.253C446.934 415.253 448.738 414.615 450.18 413.318C489.467 377.958 511.999 327.383 511.999 274.562C512 187.343 451.852 113.915 370.859 93.5537V93.5537ZM294.972 90.4123V65.8938H355.776V90.4273C345.879 88.7983 335.726 87.9375 325.375 87.9375C315.111 87.9375 304.948 88.7741 294.972 90.4123V90.4123Z" fill="#CA6E1B"/>
<path d="M325.374 279.846C328.204 279.846 330.665 278.286 331.956 275.981L357.972 249.964C360.918 247.019 360.918 242.243 357.972 239.298C355.027 236.353 350.253 236.353 347.305 239.298L332.915 253.687V216.959C332.915 212.793 329.539 209.417 325.373 209.417C321.207 209.417 317.831 212.793 317.831 216.959V272.302C317.832 276.469 321.208 279.846 325.374 279.846V279.846Z" fill="#CA6E1B"/>
<path d="M111.295 276.266C111.295 272.101 107.918 268.724 103.753 268.724H7.54198C3.3768 268.724 0 272.101 0 276.266C0 280.431 3.3768 283.808 7.54198 283.808H103.753C107.918 283.808 111.295 280.432 111.295 276.266Z" fill="#CA6E1B"/>
<path d="M37.6235 239.885H113.81C117.975 239.885 121.352 236.508 121.352 232.343C121.352 228.178 117.975 224.801 113.81 224.801H37.6235C33.4583 224.801 30.0815 228.178 30.0815 232.343C30.0815 236.508 33.4573 239.885 37.6235 239.885Z" fill="#CA6E1B"/>
<path d="M123.865 180.878H61.3838C57.2186 180.878 53.8418 184.255 53.8418 188.42C53.8418 192.585 57.2186 195.962 61.3838 195.962H123.865C128.03 195.962 131.407 192.585 131.407 188.42C131.407 184.254 128.03 180.878 123.865 180.878V180.878Z" fill="#CA6E1B"/>
<path d="M121.351 316.784C121.351 312.619 117.974 309.242 113.809 309.242H37.6235C33.4583 309.242 30.0815 312.619 30.0815 316.784C30.0815 320.95 33.4583 324.326 37.6235 324.326H113.81C117.974 324.326 121.351 320.95 121.351 316.784Z" fill="#CA6E1B"/>
<path d="M123.865 353.166H61.3838C57.2186 353.166 53.8418 356.543 53.8418 360.708C53.8418 364.873 57.2186 368.25 61.3838 368.25H123.865C128.03 368.25 131.407 364.873 131.407 360.708C131.407 356.543 128.03 353.166 123.865 353.166V353.166Z" fill="#CA6E1B"/>
</g>
<defs>
<clipPath id="clip0">
<rect width="512" height="512" fill="white"/>
</clipPath>
</defs>
</svg>
