<svg width="20" height="20" viewBox="0 0 20 20" fill="none" xmlns="http://www.w3.org/2000/svg">
<circle cx="10" cy="10" r="10" fill="#CA6E1B"/>
<path d="M10.8828 11.6016C10.3151 12.112 9.67969 12.3672 8.97656 12.3672C7.94531 12.3672 7.1276 12.0182 6.52344 11.3203C5.91927 10.6224 5.61719 9.6901 5.61719 8.52344C5.61719 7.79427 5.78646 7.11719 6.125 6.49219C6.46354 5.86719 6.9375 5.3724 7.54688 5.00781C8.16146 4.64323 8.83854 4.46094 9.57812 4.46094C10.3281 4.46094 11.0052 4.65104 11.6094 5.03125C12.2188 5.40625 12.6927 5.9401 13.0312 6.63281C13.3698 7.32031 13.5443 8.11458 13.5547 9.01562V10.0234C13.5547 11.2786 13.3073 12.3672 12.8125 13.2891C12.3229 14.2109 11.6224 14.9193 10.7109 15.4141C9.79948 15.9089 8.73698 16.1562 7.52344 16.1562H7.35938V14.0469L7.85938 14.0391C9.67188 13.9505 10.6797 13.138 10.8828 11.6016ZM9.6875 10.4688C10.2604 10.4688 10.6719 10.2214 10.9219 9.72656V8.63281C10.9219 7.90365 10.7995 7.36458 10.5547 7.01562C10.3099 6.66667 9.97917 6.49219 9.5625 6.49219C9.19271 6.49219 8.88281 6.6901 8.63281 7.08594C8.38281 7.48177 8.25781 7.96094 8.25781 8.52344C8.25781 9.11719 8.38542 9.59115 8.64062 9.94531C8.89583 10.2943 9.24479 10.4688 9.6875 10.4688Z" fill="white"/>
</svg>
