<svg width="20" height="20" viewBox="0 0 20 20" fill="none" xmlns="http://www.w3.org/2000/svg">
<circle cx="10" cy="10" r="10" fill="#CA6E1B"/>
<path d="M13.6328 16H5.69531V14.2812L9.35156 10.4375C10.2526 9.41146 10.7031 8.59635 10.7031 7.99219C10.7031 7.5026 10.5964 7.13021 10.3828 6.875C10.1693 6.61979 9.85938 6.49219 9.45312 6.49219C9.05208 6.49219 8.72656 6.66406 8.47656 7.00781C8.22656 7.34635 8.10156 7.77083 8.10156 8.28125H5.46094C5.46094 7.58333 5.63542 6.9401 5.98438 6.35156C6.33333 5.75781 6.81771 5.29427 7.4375 4.96094C8.05729 4.6276 8.75 4.46094 9.51562 4.46094C10.7448 4.46094 11.6901 4.74479 12.3516 5.3125C13.0182 5.88021 13.3516 6.69531 13.3516 7.75781C13.3516 8.20573 13.2682 8.64323 13.1016 9.07031C12.9349 9.49219 12.6745 9.9375 12.3203 10.4062C11.9714 10.8698 11.4062 11.4922 10.625 12.2734L9.15625 13.9688H13.6328V16Z" fill="white"/>
</svg>
