<svg width="20" height="20" viewBox="0 0 20 20" fill="none" xmlns="http://www.w3.org/2000/svg">
<circle cx="10" cy="10" r="10" fill="#CA6E1B"/>
<path d="M6.53125 16H3.89062V7.59375L1.29688 8.35156V6.35156L6.28906 4.625H6.53125V16ZM17.8594 11.3516C17.8594 12.888 17.513 14.0729 16.8203 14.9062C16.1328 15.7396 15.1615 16.1562 13.9062 16.1562C12.6406 16.1562 11.6615 15.737 10.9688 14.8984C10.276 14.0599 9.92969 12.8776 9.92969 11.3516V9.27344C9.92969 7.73698 10.2734 6.55208 10.9609 5.71875C11.6536 4.88542 12.6302 4.46875 13.8906 4.46875C15.151 4.46875 16.1276 4.88802 16.8203 5.72656C17.513 6.5651 17.8594 7.75 17.8594 9.28125V11.3516ZM15.2266 8.9375C15.2266 8.11979 15.1198 7.51042 14.9062 7.10938C14.6927 6.70312 14.3542 6.5 13.8906 6.5C13.4375 6.5 13.1068 6.6875 12.8984 7.0625C12.6953 7.4375 12.5859 8.00521 12.5703 8.76562V11.6719C12.5703 12.5208 12.6771 13.1432 12.8906 13.5391C13.1042 13.9297 13.4427 14.125 13.9062 14.125C14.3542 14.125 14.6849 13.9349 14.8984 13.5547C15.112 13.1693 15.2214 12.5677 15.2266 11.75V8.9375Z" fill="white"/>
</svg>
