<svg width="20" height="20" viewBox="0 0 20 20" fill="none" xmlns="http://www.w3.org/2000/svg">
<circle cx="10" cy="10" r="10" fill="#CA6E1B"/>
<path d="M13.3672 7.66406C13.3672 8.21615 13.2292 8.70312 12.9531 9.125C12.6823 9.54688 12.3073 9.88542 11.8281 10.1406C12.3698 10.4062 12.7995 10.7708 13.1172 11.2344C13.4349 11.6927 13.5938 12.237 13.5938 12.8672C13.5938 13.8828 13.2422 14.6849 12.5391 15.2734C11.8411 15.862 10.8776 16.1562 9.64844 16.1562C8.41406 16.1562 7.4401 15.862 6.72656 15.2734C6.01302 14.6797 5.65625 13.8776 5.65625 12.8672C5.65625 12.2578 5.8125 11.7188 6.125 11.25C6.4375 10.7812 6.88021 10.4115 7.45312 10.1406C6.96875 9.88542 6.58854 9.54688 6.3125 9.125C6.03646 8.70312 5.89844 8.21615 5.89844 7.66406C5.89844 6.67448 6.23438 5.89323 6.90625 5.32031C7.57812 4.7474 8.48438 4.46094 9.625 4.46094C10.776 4.46094 11.6875 4.7474 12.3594 5.32031C13.0312 5.89323 13.3672 6.67448 13.3672 7.66406ZM10.9531 12.6562C10.9531 12.1875 10.8307 11.8281 10.5859 11.5781C10.3464 11.3229 10.0286 11.1953 9.63281 11.1953C9.23698 11.1953 8.91667 11.3229 8.67188 11.5781C8.42708 11.8281 8.30469 12.1875 8.30469 12.6562C8.30469 13.1094 8.42708 13.4688 8.67188 13.7344C8.92188 13.9948 9.2474 14.125 9.64844 14.125C10.0391 14.125 10.3542 13.9948 10.5938 13.7344C10.8333 13.474 10.9531 13.1146 10.9531 12.6562ZM9.625 6.49219C9.27083 6.49219 9 6.60938 8.8125 6.84375C8.63021 7.07292 8.53906 7.39323 8.53906 7.80469C8.53906 8.21094 8.63281 8.53906 8.82031 8.78906C9.00781 9.03906 9.28385 9.16406 9.64844 9.16406C10.0078 9.16406 10.276 9.03906 10.4531 8.78906C10.6354 8.53906 10.7266 8.21094 10.7266 7.80469C10.7266 7.39844 10.6328 7.07812 10.4453 6.84375C10.263 6.60938 9.98958 6.49219 9.625 6.49219Z" fill="white"/>
</svg>
