<svg width="504" height="504" viewBox="0 0 504 504" fill="none" xmlns="http://www.w3.org/2000/svg">
<g clip-path="url(#clip0)">
<path d="M61.1231 289.763H15.4571L13.7891 294.767C11.6121 301.221 13.2941 308.352 18.1271 313.153L66.2151 361.241C73.1241 368.133 81.5351 373.332 90.7901 376.43L158.54 399.013C167.476 401.913 176.947 402.774 186.259 401.533L73.4781 294.689C70.1451 291.521 65.7211 289.757 61.1231 289.763Z" fill="#CA6E1B"/>
<path d="M335.746 208.149C334.793 206.533 333.595 205.075 332.193 203.828L262.18 141.6C258.894 138.673 254.646 137.058 250.246 137.061H219.002L192.628 158.079C179.092 168.879 159.769 168.456 146.718 157.075C133.667 145.693 130.62 126.608 139.479 111.729L144.527 103.348L105.971 108.168C95.102 109.532 84.089 109.225 73.313 107.26L10.592 95.855C7.96804 95.347 5.25604 96.062 3.22404 97.798C1.16704 99.495 -0.0159618 102.027 3.81598e-05 104.693V262.816C0.00603816 267.774 4.02404 271.792 8.98204 271.798H61.122C70.318 271.784 79.167 275.31 85.832 281.644L230.82 419C239.51 427.259 251.763 430.61 263.447 427.925L226.233 375.825C224.368 373.213 224.039 369.804 225.369 366.884C226.699 363.963 229.486 361.974 232.68 361.665C235.874 361.356 238.991 362.775 240.856 365.387L282.213 423.286L320.755 413.648L270.756 330.316C268.203 326.062 269.581 320.545 273.835 317.991C278.089 315.437 283.606 316.816 286.16 321.07L338.562 408.406C346.717 405.278 354.367 400.969 361.27 395.618L377.702 382.837L306.739 267.522C305.051 264.789 304.951 261.363 306.477 258.536C308.003 255.709 310.923 253.913 314.134 253.825C317.345 253.737 320.359 255.371 322.037 258.11L391.965 371.744L394.506 369.768C408.716 358.661 412.524 338.758 403.418 323.19L335.746 208.149Z" fill="#CA6E1B"/>
<path d="M503.017 156.732C503.017 154.208 501.955 151.801 500.09 150.099C498.226 148.398 495.732 147.559 493.218 147.789L447.521 151.943C423.905 154.117 400.529 145.785 383.613 129.162L356.324 110.017C355.233 109.252 354.086 108.569 352.894 107.973L351.89 107.385L327.698 91.07C311.387 80.044 292.145 74.163 272.457 74.184H194.07C188.062 74.179 182.451 77.183 179.123 82.184L169.515 96.596C169.48 96.656 169.484 96.725 169.448 96.785L154.865 120.996C150.145 128.803 152.14 138.92 159.47 144.351C166.014 149.249 175.038 149.116 181.435 144.026L206.878 123.75V110.114C206.878 105.153 210.9 101.132 215.86 101.132C220.82 101.132 224.842 105.154 224.842 110.114V119.096H250.246C259.047 119.093 267.542 122.323 274.119 128.171L344.132 190.403C346.935 192.895 349.331 195.81 351.233 199.043L418.9 314.082L418.918 314.12L492.049 288.078C498.734 285.303 503.072 278.755 503.018 271.517L503.017 156.732Z" fill="#CA6E1B"/>
</g>
<defs>
<clipPath id="clip0">
<rect width="503.018" height="503.018" fill="white"/>
</clipPath>
</defs>
</svg>
