<svg width="408" height="408" viewBox="0 0 408 408" fill="none" xmlns="http://www.w3.org/2000/svg">
<g clip-path="url(#clip0)">
<path d="M257.045 139.494C252.631 135.909 246.308 135.909 241.894 139.494L139.494 241.894C135.447 246.134 135.447 252.805 139.494 257.045L228.31 345.861C230.41 347.484 232.971 348.399 235.624 348.473C238.45 348.473 241.2 347.556 243.461 345.861L345.861 243.461C347.557 241.2 348.473 238.45 348.473 235.624C348.398 232.971 347.484 230.41 345.861 228.31L257.045 139.494ZM235.625 323.397L161.96 249.209L249.209 161.96L323.397 235.625L235.625 323.397Z" fill="#CA6E1B"/>
<path d="M395.643 212.786C395.422 212.56 395.198 212.336 394.972 212.115L230.4 47.543C222.269 39.329 211.131 34.799 199.575 35.004L68.964 38.662C64.588 38.64 60.276 39.718 56.425 41.797L16.719 2.09C12.102 -1.372 5.55299 -0.436003 2.08999 4.18C-0.696012 7.895 -0.696012 13.004 2.08999 16.719L41.796 56.425C39.717 60.276 38.639 64.588 38.661 68.964L35.004 199.576C34.799 211.132 39.329 222.269 47.543 230.4L212.114 394.971C228.046 411.273 254.177 411.574 270.48 395.642C270.706 395.421 270.93 395.197 271.151 394.971L394.971 271.151C411.274 255.22 411.575 229.089 395.643 212.786ZM380.569 256.297C380.494 256.373 380.419 256.448 380.343 256.523L256.523 380.343C248.116 388.11 235.151 388.11 226.743 380.343L62.172 215.772C58.076 211.593 55.819 205.95 55.903 200.099L59.56 74.189L95.609 110.238C91.244 117.501 88.899 125.798 88.817 134.271C88.53 159.661 108.88 180.476 134.27 180.763C159.66 181.05 180.475 160.7 180.762 135.31C181.049 109.92 160.699 89.105 135.309 88.818C134.963 88.814 134.616 88.814 134.27 88.818C125.797 88.9 117.5 91.245 110.237 95.61L74.188 59.56L200.621 55.903H201.143C206.61 56.184 211.797 58.407 215.772 62.172L380.343 226.743C388.567 234.842 388.668 248.073 380.569 256.297ZM109.715 134.27C109.715 120.709 120.709 109.715 134.27 109.715C147.918 109.712 159.063 120.625 159.348 134.27C159.07 148.003 148.004 159.07 134.27 159.348C120.624 159.063 109.712 147.918 109.715 134.27Z" fill="#CA6E1B"/>
</g>
<defs>
<clipPath id="clip0">
<rect width="407.398" height="407.398" fill="white"/>
</clipPath>
</defs>
</svg>
