<svg width="512" height="512" viewBox="0 0 512 512" fill="none" xmlns="http://www.w3.org/2000/svg">
<path d="M482 0V39H331V9H181V39H30V0H0V332H30V129H181V159H331V129H482V332H512V0H482ZM181 99H30V69H181V99ZM482 99H331V69H482V99Z" fill="#CA6E1B"/>
<path d="M0 362V512H512V362H0ZM121 452H60V422H121V452ZM166 452C157.716 452 151 445.284 151 437C151 428.716 157.716 422 166 422C174.284 422 181 428.716 181 437C181 445.284 174.284 452 166 452ZM226 452C217.716 452 211 445.284 211 437C211 428.716 217.716 422 226 422C234.284 422 241 428.716 241 437C241 445.284 234.284 452 226 452ZM286 452C277.716 452 271 445.284 271 437C271 428.716 277.716 422 286 422C294.284 422 301 428.716 301 437C301 445.284 294.284 452 286 452ZM437 452C428.716 452 422 445.284 422 437C422 428.716 428.716 422 437 422C445.284 422 452 428.716 452 437C452 445.284 445.284 452 437 452Z" fill="#CA6E1B"/>
<path d="M271 262V302H241V272H141V332H371V262H271Z" fill="#CA6E1B"/>
<path d="M211 189V219H241V249H271V219H301V189H211Z" fill="#CA6E1B"/>
</svg>
