<svg width="20" height="20" viewBox="0 0 20 20" fill="none" xmlns="http://www.w3.org/2000/svg">
<circle cx="10" cy="10" r="10" fill="#CA6E1B"/>
<path d="M12.0547 4.46094V6.53125H11.9375C10.9531 6.53125 10.1432 6.76823 9.50781 7.24219C8.8776 7.71094 8.48958 8.36458 8.34375 9.20312C8.9375 8.61979 9.6875 8.32812 10.5938 8.32812C11.5781 8.32812 12.362 8.6875 12.9453 9.40625C13.5286 10.125 13.8203 11.0677 13.8203 12.2344C13.8203 12.9583 13.6484 13.6224 13.3047 14.2266C12.9661 14.8307 12.4896 15.3047 11.875 15.6484C11.2656 15.987 10.5885 16.1562 9.84375 16.1562C9.03646 16.1562 8.3151 15.974 7.67969 15.6094C7.04427 15.2396 6.54948 14.7135 6.19531 14.0312C5.84115 13.349 5.65885 12.5625 5.64844 11.6719V10.6172C5.64844 9.44531 5.89844 8.39323 6.39844 7.46094C6.90365 6.52344 7.6224 5.78906 8.55469 5.25781C9.48698 4.72656 10.5208 4.46094 11.6562 4.46094H12.0547ZM9.67969 10.3438C9.33073 10.3438 9.03906 10.4245 8.80469 10.5859C8.57031 10.7474 8.39583 10.9453 8.28125 11.1797V11.9688C8.28125 13.4062 8.77865 14.125 9.77344 14.125C10.1745 14.125 10.5078 13.9453 10.7734 13.5859C11.0443 13.2266 11.1797 12.776 11.1797 12.2344C11.1797 11.6771 11.0417 11.224 10.7656 10.875C10.4948 10.5208 10.1328 10.3438 9.67969 10.3438Z" fill="white"/>
</svg>
