<svg width="20" height="20" viewBox="0 0 20 20" fill="none" xmlns="http://www.w3.org/2000/svg">
<circle cx="10" cy="10" r="10" fill="#CA6E1B"/>
<path d="M5.85156 10.4375L6.54688 4.625H13.1953V6.67188H8.6875L8.42969 8.92969C8.61719 8.82031 8.86198 8.72396 9.16406 8.64062C9.47135 8.55729 9.77083 8.51562 10.0625 8.51562C11.1927 8.51562 12.0599 8.85156 12.6641 9.52344C13.2734 10.1901 13.5781 11.1276 13.5781 12.3359C13.5781 13.0651 13.4141 13.7266 13.0859 14.3203C12.763 14.9089 12.3073 15.362 11.7188 15.6797C11.1302 15.9974 10.4349 16.1562 9.63281 16.1562C8.91927 16.1562 8.25 16.0104 7.625 15.7188C7 15.4219 6.51042 15.0182 6.15625 14.5078C5.80208 13.9922 5.6276 13.4115 5.63281 12.7656H8.27344C8.29948 13.1823 8.43229 13.513 8.67188 13.7578C8.91146 14.0026 9.22656 14.125 9.61719 14.125C10.5026 14.125 10.9453 13.4688 10.9453 12.1562C10.9453 10.9427 10.4036 10.3359 9.32031 10.3359C8.70573 10.3359 8.2474 10.5339 7.94531 10.9297L5.85156 10.4375Z" fill="white"/>
</svg>
