<svg width="20" height="20" viewBox="0 0 20 20" fill="none" xmlns="http://www.w3.org/2000/svg">
<circle cx="10" cy="10" r="10" fill="#CA6E1B"/>
<path d="M8.10156 9.21094H9.34375C10.3281 9.21094 10.8203 8.72917 10.8203 7.76562C10.8203 7.39062 10.7031 7.08594 10.4688 6.85156C10.2344 6.61198 9.90365 6.49219 9.47656 6.49219C9.1276 6.49219 8.82292 6.59375 8.5625 6.79688C8.30729 7 8.17969 7.2526 8.17969 7.55469H5.54688C5.54688 6.95573 5.71354 6.42188 6.04688 5.95312C6.38021 5.48438 6.84115 5.11979 7.42969 4.85938C8.02344 4.59375 8.67448 4.46094 9.38281 4.46094C10.6484 4.46094 11.6432 4.75 12.3672 5.32812C13.0911 5.90625 13.4531 6.70052 13.4531 7.71094C13.4531 8.20052 13.3021 8.66406 13 9.10156C12.7031 9.53385 12.2682 9.88542 11.6953 10.1562C12.2995 10.375 12.7734 10.7083 13.1172 11.1562C13.4609 11.599 13.6328 12.1484 13.6328 12.8047C13.6328 13.8203 13.2422 14.6328 12.4609 15.2422C11.6797 15.8516 10.6536 16.1562 9.38281 16.1562C8.63802 16.1562 7.94531 16.0156 7.30469 15.7344C6.66927 15.4479 6.1875 15.0547 5.85938 14.5547C5.53125 14.0495 5.36719 13.4766 5.36719 12.8359H8.01562C8.01562 13.1849 8.15625 13.487 8.4375 13.7422C8.71875 13.9974 9.0651 14.125 9.47656 14.125C9.9401 14.125 10.3099 13.9974 10.5859 13.7422C10.862 13.4818 11 13.151 11 12.75C11 12.1771 10.8568 11.7708 10.5703 11.5312C10.2839 11.2917 9.88802 11.1719 9.38281 11.1719H8.10156V9.21094Z" fill="white"/>
</svg>
